<svg width="209" height="159" viewBox="0 0 209 159" fill="none" xmlns="http://www.w3.org/2000/svg">
<path fill-rule="evenodd" clip-rule="evenodd" d="M127.655 127.149C128.706 126.229 129.797 125.274 130.898 124.41C131.892 123.63 133.33 123.804 134.11 124.798C134.89 125.792 134.716 127.229 133.722 128.009C132.715 128.8 131.788 129.612 130.796 130.481C130.276 130.936 129.739 131.407 129.162 131.899C127.54 133.283 125.739 134.712 123.573 135.987C119.18 138.571 113.505 140.391 104.934 140.391C90.9001 140.391 80.8295 131.969 77.4379 127.615C76.6615 126.619 76.8401 125.181 77.8367 124.405C78.8333 123.629 80.2705 123.807 81.0469 124.804C83.8325 128.38 92.6866 135.817 104.934 135.817C112.789 135.817 117.644 134.167 121.253 132.044C123.087 130.964 124.656 129.729 126.193 128.419C126.669 128.012 127.158 127.584 127.655 127.149Z" fill="black"/>
<ellipse cx="67.0856" cy="67.9377" rx="14.1634" ry="23.1086" fill="white"/>
<ellipse cx="141.558" cy="67.9377" rx="13.4179" ry="23.1086" fill="white"/>
<ellipse cx="70.0673" cy="67.9378" rx="11.1816" ry="18.636" fill="black"/>
<ellipse cx="138.576" cy="67.1923" rx="10.4362" ry="17.8906" fill="black"/>
<path d="M46.0252 35.2056C47.4144 34.2101 55.3549 29.2555 66.8637 29.2555C78.3726 29.2555 89.0915 34.21 87.7023 35.2056C87.7023 46.7144 85.5694 35.2053 67.5093 35.2053C48.06 35.2054 46.0252 46.7144 46.0252 35.2056Z" fill="black"/>
<path d="M120.756 35.2057C122.145 34.2101 130.085 29.2555 141.594 29.2555C153.103 29.2555 163.822 34.2101 162.433 35.2057C162.433 46.7145 160.3 35.2054 142.24 35.2054C122.79 35.2054 120.756 46.7145 120.756 35.2057Z" fill="black"/>
<path d="M107.051 84.4817C104.433 85.0426 99.1987 87.3421 99.1987 92.0534C99.1987 97.9424 104.433 99.625 107.051 100.466" stroke="black" stroke-width="2.87424" stroke-linecap="round" stroke-linejoin="round"/>
</svg>
