<svg width="209" height="159" viewBox="0 0 209 159" fill="none" xmlns="http://www.w3.org/2000/svg">
<path fill-rule="evenodd" clip-rule="evenodd" d="M127.655 127.149C128.706 126.229 129.797 125.274 130.898 124.41C131.892 123.63 133.33 123.804 134.11 124.798C134.89 125.792 134.716 127.229 133.722 128.009C132.715 128.8 131.788 129.612 130.796 130.481C130.276 130.936 129.739 131.407 129.162 131.899C127.54 133.283 125.739 134.712 123.573 135.987C119.18 138.571 113.505 140.391 104.934 140.391C90.9001 140.391 80.8295 131.969 77.4379 127.615C76.6615 126.619 76.8401 125.181 77.8367 124.405C78.8333 123.629 80.2705 123.807 81.0469 124.804C83.8325 128.38 92.6866 135.817 104.934 135.817C112.789 135.817 117.644 134.167 121.253 132.044C123.087 130.964 124.656 129.729 126.193 128.419C126.669 128.012 127.158 127.584 127.655 127.149Z" fill="black"/>
<ellipse cx="20.8383" cy="12.5748" rx="20.8383" ry="12.5748" transform="matrix(-1 0 0 1 84.8275 57.9979)" fill="white"/>
<mask id="mask0_202_1223" style="mask-type:alpha" maskUnits="userSpaceOnUse" x="43" y="57" width="42" height="27">
<ellipse cx="20.8383" cy="12.5748" rx="20.8383" ry="12.5748" transform="matrix(-1 0 0 1 84.8275 57.9979)" fill="white"/>
</mask>
<g mask="url(#mask0_202_1223)">
<circle cx="12.9341" cy="12.9341" r="12.9341" transform="matrix(-1 0 0 1 86.9832 57.9979)" fill="black"/>
</g>
<path d="M41.7139 31.7057C43.2926 30.5744 52.316 24.9441 65.3943 24.9441C78.4727 24.9441 90.6535 30.5744 89.0748 31.7057C89.0748 44.7841 86.651 31.7054 66.1279 31.7054C44.0262 31.7054 41.7139 44.7841 41.7139 31.7057Z" fill="black"/>
<path d="M121.39 31.7057C122.969 30.5744 131.992 24.9441 145.071 24.9441C158.149 24.9441 170.33 30.5744 168.751 31.7057C168.751 44.7841 166.327 31.7054 145.804 31.7054C123.702 31.7054 121.39 44.7841 121.39 31.7057Z" fill="black"/>
<ellipse cx="20.8383" cy="12.5748" rx="20.8383" ry="12.5748" transform="matrix(-1 0 0 1 163.869 57.9979)" fill="white"/>
<mask id="mask1_202_1223" style="mask-type:alpha" maskUnits="userSpaceOnUse" x="122" y="57" width="42" height="27">
<ellipse cx="20.8383" cy="12.5748" rx="20.8383" ry="12.5748" transform="matrix(-1 0 0 1 163.869 57.9979)" fill="white"/>
</mask>
<g mask="url(#mask1_202_1223)">
<circle cx="12.9341" cy="12.9341" r="12.9341" transform="matrix(-1 0 0 1 166.025 57.9979)" fill="black"/>
</g>
<path d="M106.949 99.5183C109.567 98.9574 114.801 96.6579 114.801 91.9466C114.801 86.0576 109.567 84.375 106.949 83.5337" stroke="black" stroke-width="2.87424" stroke-linecap="round" stroke-linejoin="round"/>
</svg>
