<svg width="208" height="159" viewBox="0 0 208 159" fill="none" xmlns="http://www.w3.org/2000/svg">
<path fill-rule="evenodd" clip-rule="evenodd" d="M127.655 127.149C128.706 126.229 129.797 125.274 130.898 124.41C131.892 123.63 133.33 123.804 134.11 124.798C134.89 125.792 134.716 127.229 133.722 128.009C132.715 128.8 131.788 129.612 130.796 130.481C130.276 130.936 129.739 131.407 129.162 131.899C127.54 133.283 125.739 134.712 123.573 135.987C119.18 138.571 113.505 140.391 104.934 140.391C90.9001 140.391 80.8295 131.969 77.4379 127.615C76.6615 126.619 76.8401 125.181 77.8367 124.405C78.8333 123.629 80.2705 123.807 81.0469 124.804C83.8325 128.38 92.6866 135.817 104.934 135.817C112.789 135.817 117.644 134.167 121.253 132.044C123.087 130.964 124.656 129.729 126.193 128.419C126.669 128.012 127.158 127.584 127.655 127.149Z" fill="black"/>
<path d="M40.9953 32.4243C42.574 31.2929 51.5974 25.6627 64.6757 25.6627C77.7541 25.6627 89.9349 31.2929 88.3562 32.4243C88.3562 45.5026 85.9324 32.424 65.4094 32.424C43.3076 32.424 40.9953 45.5026 40.9953 32.4243Z" fill="black"/>
<path d="M120.672 32.4243C122.25 31.2929 131.274 25.6627 144.352 25.6627C157.43 25.6627 169.611 31.2929 168.032 32.4243C168.032 45.5026 165.609 32.424 145.086 32.424C122.984 32.424 120.672 45.5026 120.672 32.4243Z" fill="black"/>
<ellipse cx="63.9892" cy="70.5727" rx="20.8383" ry="12.5748" fill="white"/>
<mask id="mask0_202_1223" style="mask-type:alpha" maskUnits="userSpaceOnUse" x="43" y="57" width="42" height="27">
<ellipse cx="63.9892" cy="70.5727" rx="20.8383" ry="12.5748" fill="white"/>
</mask>
<g mask="url(#mask0_202_1223)">
<circle cx="53.9294" cy="70.932" r="12.9341" fill="black"/>
</g>
<ellipse cx="143.031" cy="70.5727" rx="20.8383" ry="12.5748" fill="white"/>
<mask id="mask1_202_1223" style="mask-type:alpha" maskUnits="userSpaceOnUse" x="122" y="57" width="42" height="27">
<ellipse cx="143.031" cy="70.5727" rx="20.8383" ry="12.5748" fill="white"/>
</mask>
<g mask="url(#mask1_202_1223)">
<circle cx="132.971" cy="70.932" r="12.9341" fill="black"/>
</g>
<path d="M107.051 84.4817C104.433 85.0426 99.1987 87.3421 99.1987 92.0534C99.1987 97.9424 104.433 99.625 107.051 100.466" stroke="black" stroke-width="2.87424" stroke-linecap="round" stroke-linejoin="round"/>
</svg>
