<svg width="208" height="159" viewBox="0 0 208 159" fill="none" xmlns="http://www.w3.org/2000/svg">
<path fill-rule="evenodd" clip-rule="evenodd" d="M83.9529 137.867C82.902 138.716 81.8097 139.599 80.7077 140.397C79.6845 141.138 78.2544 140.909 77.5134 139.886C76.7725 138.862 77.0013 137.432 78.0245 136.691C79.0316 135.962 79.9572 135.213 80.9487 134.412C81.4685 133.991 82.0065 133.556 82.5838 133.101C84.2078 131.823 86.008 130.504 88.172 129.329C92.5528 126.949 98.2024 125.277 106.742 125.277C120.701 125.277 130.761 133.015 134.182 137.069C134.997 138.034 134.875 139.477 133.909 140.292C132.944 141.107 131.501 140.985 130.686 140.019C127.93 136.753 119.065 129.852 106.742 129.852C98.8567 129.852 93.9768 131.382 90.3554 133.349C88.5182 134.347 86.9491 135.487 85.4142 136.696C84.9386 137.07 84.4504 137.465 83.9529 137.867Z" fill="black"/>
<path d="M160.315 35.7226C157.228 38.1495 152.48 43.0034 143.221 43.0034C135.354 43.0034 128.738 37.6641 127.551 35.7226" stroke="black" stroke-width="5.94613" stroke-linecap="round"/>
<path d="M160.315 64.465C157.228 66.892 152.48 71.7458 143.221 71.7458C135.354 71.7459 128.738 66.4066 127.551 64.465" stroke="black" stroke-width="2.97307" stroke-linecap="round"/>
<path d="M80.2259 35.7225C77.1395 38.1495 72.3911 43.0033 63.1319 43.0033C55.2648 43.0034 48.6494 37.6641 47.4623 35.7225" stroke="black" stroke-width="5.94613" stroke-linecap="round"/>
<path d="M80.226 64.465C77.1396 66.892 72.3912 71.7458 63.1319 71.7458C55.2648 71.7459 48.6495 66.4066 47.4624 64.465" stroke="black" stroke-width="2.97307" stroke-linecap="round"/>
<path d="M107.051 84.4817C104.433 85.0426 99.1987 87.3421 99.1987 92.0534C99.1987 97.9424 104.433 99.625 107.051 100.466" stroke="black" stroke-width="2.87424" stroke-linecap="round" stroke-linejoin="round"/>
</svg>
